<svg width="129" height="57" viewBox="0 0 129 57" fill="none" xmlns="http://www.w3.org/2000/svg">
<g clip-path="url(#clip0_22_536)">
<path d="M104.425 10.1149V24.2559H102.189V10.1149H96.1673V24.2559H93.7594V10.1149H87.738V24.2559H83.5234V0H77.5021V24.2559V27.6844H83.5234H87.738H93.7594H96.1673H102.189H104.425H110.448V24.2559V10.1149H104.425Z" fill="#CF3339"/>
<path d="M33.284 5.49734C30.0583 3.96267 26.3419 3.08443 22.3862 3.08443C10.0224 3.08443 0 11.6209 0 22.1508C0 27.5742 2.66235 32.4634 6.92848 35.9357L10.4132 32.4166C7.31466 29.797 5.39589 26.1648 5.39589 22.1508C5.39589 15.2818 11.0159 9.53546 18.5532 8.05512V47.4962H22.3862V7.68088C24.6942 7.68088 26.8946 8.07474 28.8997 8.78397L33.284 5.49734Z" fill="#05569B"/>
<path d="M32.7039 39.0684C39.8717 35.8904 44.7709 29.5103 44.7709 22.1508C44.7709 19.172 43.9667 16.3547 42.5386 13.8422L38.4481 17.4336C39.0463 18.9125 39.3765 20.4985 39.3765 22.1493C39.3765 29.4877 32.9614 35.5448 24.6472 36.4895L29.0663 43.0099L30.8276 45.5979L38.5905 56.9985H46.4746L32.7055 39.0669L32.7039 39.0684Z" fill="#05569B"/>
<path d="M67.8673 0V24.2559H64.4947V10.1149H52.7761C51.0875 10.1149 49.7185 11.4776 49.7185 13.1601V27.6844H73.8887V0H67.8673ZM58.8898 23.5074C58.8898 24.4656 58.1099 25.2428 57.1482 25.2428C56.1866 25.2428 55.4066 24.4656 55.4066 23.5074V13.7758C55.4066 12.8176 56.1866 12.0404 57.1482 12.0404C58.1099 12.0404 58.8898 12.8176 58.8898 13.7758V23.5074Z" fill="#CF3339"/>
<path d="M54.7009 8.32975C55.7686 8.32975 56.6333 7.79556 56.6333 7.13763C56.6333 6.4797 55.7686 5.944 54.7009 5.944C53.6333 5.944 52.7701 6.47819 52.7701 7.13763C52.7701 7.79707 53.6348 8.32975 54.7009 8.32975Z" fill="#CF3339"/>
<path d="M60.7965 8.32975C61.8641 8.32975 62.7289 7.79556 62.7289 7.13763C62.7289 6.4797 61.8641 5.944 60.7965 5.944C59.7288 5.944 58.8641 6.47819 58.8641 7.13763C58.8641 7.79707 59.7303 8.32975 60.7965 8.32975Z" fill="#CF3339"/>
<path d="M129 57H51.4419L49.7185 54.3426H129" fill="#CF3339"/>
<path d="M2.14441 54.3426H31.5605L33.284 57H2.14441" fill="#CF3339"/>
<path d="M50.3621 52.5514C50.6044 51.7532 50.7755 50.9685 50.8709 50.2019C50.9679 49.4338 51.0178 48.4741 51.0178 47.3227V39.7308C51.0178 38.6021 50.9694 37.6544 50.8709 36.8848C50.774 36.1167 50.5999 35.323 50.35 34.5006H60.848L60.121 35.9749L59.3805 37.4613C58.6505 37.0931 57.9357 36.8335 57.2315 36.6841C56.5273 36.5347 55.6792 36.4593 54.6827 36.4593H53.9058V42.3686H60.1801L59.3063 43.8308L58.4324 45.2946C57.8176 44.9415 57.1785 44.691 56.5152 44.5461C55.8519 44.4012 55.0189 44.3273 54.0149 44.3273H53.9058V50.5716C55.6202 50.5248 57.0331 50.4056 58.1417 50.214C59.6137 49.9604 60.9206 49.5259 62.061 48.9117L61.2735 50.7316L60.4724 52.5514H50.3636H50.3621Z" fill="#05569B"/>
<path d="M73.1844 38.0604C72.618 37.4839 72.0532 37.0659 71.4868 36.8049C70.9219 36.5438 70.2995 36.4125 69.6195 36.4125C68.8259 36.4125 68.1702 36.6419 67.6492 37.0991C67.1268 37.5563 66.8663 38.1252 66.8663 38.8088C66.8663 39.3928 67.0692 39.9225 67.4751 40.3993C67.8703 40.8686 68.5867 41.4134 69.6225 42.0351C71.1915 42.9873 72.297 43.8791 72.9361 44.7076C73.5752 45.536 73.8947 46.5048 73.8947 47.6109C73.8947 49.1079 73.3374 50.3528 72.2198 51.3427C71.1021 52.3341 69.6998 52.8291 68.0066 52.8291C67.1661 52.8291 66.4453 52.7717 65.8471 52.6555C65.2489 52.5409 64.5477 52.3266 63.7481 52.0112V48.6355C64.3311 49.3267 64.9324 49.8337 65.5563 50.1566C66.1802 50.478 66.8648 50.6395 67.6083 50.6395C68.5473 50.6395 69.3272 50.3845 69.9466 49.8729C70.566 49.3629 70.8749 48.7231 70.8749 47.955C70.8749 47.288 70.666 46.6964 70.2449 46.1819C69.8315 45.6748 69.0925 45.0984 68.0248 44.454C66.4892 43.532 65.4094 42.6764 64.7855 41.8842C64.16 41.0935 63.8465 40.1881 63.8465 39.1665C63.8465 37.754 64.4144 36.577 65.5502 35.6354C66.6861 34.6937 68.1111 34.2229 69.8255 34.2229C70.513 34.2229 71.1248 34.2803 71.6624 34.3965C72.2001 34.5112 72.7074 34.6907 73.186 34.9382V38.0604H73.1844Z" fill="#05569B"/>
<path d="M78.2275 47.3227L84.7319 34.1445H84.7395L91.2454 47.3227C91.9966 48.8347 92.6115 49.9755 93.09 50.7421C93.5671 51.5102 94.0365 52.1138 94.4969 52.5514H89.778C89.8749 52.1908 89.8279 51.6279 89.6371 50.8628C89.4478 50.0993 89.1495 49.2678 88.7451 48.3699L88.1242 46.9756H81.0882L80.9974 47.2397C80.5112 48.3066 80.1402 49.3553 79.8812 50.3845C79.6223 51.4151 79.5496 52.1349 79.6616 52.5514H74.8988C75.4167 52.0595 75.918 51.4302 76.4026 50.6621C76.8872 49.8956 77.496 48.7804 78.2244 47.3227H78.2275ZM82.1347 44.6729H87.0959L84.6214 39.2238H84.6092L82.1332 44.6729H82.1347Z" fill="#05569B"/>
<path d="M96.3808 52.5514C96.6231 51.7532 96.7943 50.9685 96.8912 50.2019C96.9881 49.4338 97.0366 48.4741 97.0366 47.3227V39.7308C97.0366 38.6021 96.9881 37.6544 96.8912 36.8848C96.7943 36.1167 96.6201 35.323 96.3702 34.5006H100.58C100.338 35.3064 100.168 36.0926 100.071 36.8562C99.9746 37.6197 99.9246 38.5795 99.9246 39.7308V50.5459C101.356 50.4931 102.558 50.38 103.529 50.2125C105.001 49.9589 106.308 49.5243 107.448 48.9102L106.659 50.73L105.858 52.5499H96.3793L96.3808 52.5514Z" fill="#05569B"/>
<path d="M111.224 47.3227L117.728 34.1445H117.737L124.242 47.3227C124.994 48.8347 125.609 49.9755 126.086 50.7421C126.563 51.5102 127.033 52.1138 127.493 52.5514H122.776C122.873 52.1908 122.826 51.6279 122.635 50.8628C122.444 50.0993 122.147 49.2678 121.744 48.3699L121.122 46.9756H114.086L113.995 47.2397C113.51 48.3066 113.138 49.3553 112.879 50.3845C112.62 51.4151 112.547 52.1349 112.661 52.5514H107.897C108.414 52.0595 108.916 51.4302 109.402 50.6621C109.886 49.8956 110.495 48.7804 111.222 47.3227H111.224ZM115.131 44.6729H120.094L117.619 39.2238H117.607L115.131 44.6729Z" fill="#05569B"/>
<path d="M122.944 24.9199L122.962 20.6569C122.962 20.6569 122.914 14.8849 122.948 12.0027C122.948 11.9197 122.945 10.1149 122.945 10.1149H117.177C117.177 12.0284 117.183 13.9433 117.177 15.8567C117.169 18.8929 117.213 21.9275 117.177 24.9606C117.159 26.6432 117.283 28.7165 115.932 29.9826C115.202 30.6662 114.203 30.8729 113.247 31.0314C112.817 31.1023 112.254 31.0329 111.863 31.2426C111.269 31.561 111.555 32.2416 112.042 32.56C112.714 33.0052 113.567 33.2406 114.354 33.3794C116.079 33.6842 117.814 33.5318 119.411 32.7909C120.28 32.388 121.008 31.813 121.573 31.0374C122.067 30.3553 122.574 29.4243 122.762 28.6004C122.832 28.297 122.883 27.9907 122.92 27.6829C123.027 26.7684 122.944 24.9214 122.944 24.9214V24.9199Z" fill="#CF3339"/>
<path d="M56.1048 2.99539C56.1048 2.70113 55.8625 2.46422 55.5596 2.45366V2.45064C55.5596 2.45064 55.5535 2.45064 55.549 2.45064C55.5444 2.45064 55.5414 2.45064 55.5384 2.45064V2.45366C40.8379 3.76952 27.3807 17.3974 27.3807 17.3974V24.2559C27.3807 24.2559 38.012 6.73322 55.5596 3.54015V3.53713C55.861 3.52657 56.1048 3.28965 56.1048 2.99539Z" fill="#CF3339"/>
</g>
<defs>
<clipPath id="clip0_22_536">
<rect width="129" height="57" fill="white"/>
</clipPath>
</defs>
</svg>
